<svg xmlns="http://www.w3.org/2000/svg" width="1024" height="1024" viewBox="0 0 1024 1024">
<path d="M 226 134 L 225 135 L 219 135 L 218 136 L 215 136 L 214 137 L 211 137 L 210 138 L 207 138 L 206 139 L 204 139 L 203 140 L 201 140 L 200 141 L 198 141 L 197 142 L 196 142 L 195 143 L 193 143 L 191 145 L 189 145 L 188 146 L 187 146 L 185 148 L 184 148 L 183 149 L 182 149 L 181 150 L 180 150 L 178 152 L 177 152 L 174 155 L 173 155 L 171 157 L 170 157 L 162 165 L 161 165 L 161 166 L 153 174 L 153 175 L 150 178 L 150 179 L 148 181 L 148 182 L 146 184 L 146 185 L 145 186 L 145 187 L 144 188 L 144 189 L 142 191 L 142 192 L 141 193 L 141 194 L 140 195 L 140 197 L 139 198 L 139 199 L 138 200 L 138 202 L 137 203 L 137 204 L 136 205 L 136 207 L 135 208 L 135 211 L 134 212 L 134 214 L 133 215 L 133 219 L 132 220 L 132 225 L 131 226 L 131 798 L 132 799 L 132 803 L 133 804 L 133 808 L 134 809 L 134 811 L 135 812 L 135 814 L 136 815 L 136 817 L 137 818 L 137 820 L 138 821 L 138 822 L 139 823 L 139 825 L 140 826 L 140 827 L 141 828 L 141 829 L 142 830 L 142 831 L 143 832 L 143 833 L 144 834 L 144 835 L 146 837 L 146 838 L 147 839 L 147 840 L 149 842 L 149 843 L 151 845 L 151 846 L 155 850 L 155 851 L 169 865 L 170 865 L 173 868 L 174 868 L 177 871 L 178 871 L 180 873 L 181 873 L 182 874 L 183 874 L 185 876 L 186 876 L 187 877 L 188 877 L 189 878 L 190 878 L 191 879 L 192 879 L 193 880 L 194 880 L 195 881 L 197 881 L 198 882 L 200 882 L 201 883 L 202 883 L 203 884 L 205 884 L 206 885 L 209 885 L 210 886 L 213 886 L 214 887 L 218 887 L 219 888 L 225 888 L 226 889 L 797 889 L 798 888 L 804 888 L 805 887 L 809 887 L 810 886 L 813 886 L 814 885 L 816 885 L 817 884 L 820 884 L 821 883 L 822 883 L 823 882 L 825 882 L 826 881 L 827 881 L 828 880 L 830 880 L 831 879 L 832 879 L 833 878 L 834 878 L 835 877 L 836 877 L 837 876 L 838 876 L 840 874 L 841 874 L 842 873 L 843 873 L 845 871 L 846 871 L 848 869 L 849 869 L 852 866 L 853 866 L 869 850 L 869 849 L 872 846 L 872 845 L 875 842 L 875 841 L 877 839 L 877 838 L 878 837 L 878 836 L 879 835 L 879 834 L 881 832 L 881 831 L 882 830 L 882 829 L 883 828 L 883 827 L 884 826 L 884 824 L 885 823 L 885 822 L 886 821 L 886 819 L 887 818 L 887 816 L 888 815 L 888 813 L 889 812 L 889 810 L 890 809 L 890 806 L 891 805 L 891 800 L 892 799 L 892 792 L 893 791 L 893 232 L 892 231 L 892 223 L 891 222 L 891 218 L 890 217 L 890 214 L 889 213 L 889 210 L 888 209 L 888 207 L 887 206 L 887 204 L 886 203 L 886 202 L 885 201 L 885 199 L 884 198 L 884 197 L 883 196 L 883 195 L 882 194 L 882 193 L 881 192 L 881 191 L 880 190 L 880 189 L 879 188 L 879 187 L 877 185 L 877 184 L 876 183 L 876 182 L 873 179 L 873 178 L 870 175 L 870 174 L 864 168 L 864 167 L 863 167 L 853 157 L 852 157 L 849 154 L 848 154 L 846 152 L 845 152 L 843 150 L 842 150 L 841 149 L 840 149 L 839 148 L 838 148 L 836 146 L 835 146 L 834 145 L 833 145 L 832 144 L 830 144 L 829 143 L 828 143 L 827 142 L 826 142 L 825 141 L 823 141 L 822 140 L 821 140 L 820 139 L 817 139 L 816 138 L 814 138 L 813 137 L 810 137 L 809 136 L 805 136 L 804 135 L 798 135 L 797 134 Z" fill="none" stroke="#2980b9" stroke-width="2"/>
</svg>